<?xml version="1.0" standalone="no"?>
<!DOCTYPE svg PUBLIC "-//W3C//DTD SVG 20010904//EN"
 "http://www.w3.org/TR/2001/REC-SVG-20010904/DTD/svg10.dtd">
<svg version="1.0" xmlns="http://www.w3.org/2000/svg"
 viewBox="0 0 2600.000000 2600.000000"
 preserveAspectRatio="xMidYMid meet">
<metadata>
Created by potrace 1.13, written by Peter Selinger 2001-2015
</metadata>
<g transform="translate(0.000000,2600.000000) scale(0.100000,-0.100000)"
fill="#000000" stroke="none">
<path d="M12480 20924 c-47 -2 -213 -8 -370 -14 -2918 -110 -5625 -710 -7515
-1665 -413 -209 -751 -410 -1054 -626 -938 -671 -1468 -1395 -1606 -2194 -60
-345 -24 -1172 81 -1890 340 -2329 1438 -4539 3064 -6165 1050 -1049 2312
-1856 3730 -2385 330 -123 823 -277 1125 -351 61 -15 113 -30 117 -33 4 -4
-17 -43 -47 -88 -262 -392 -414 -866 -432 -1354 -7 -181 1 -228 52 -306 48
-73 99 -104 276 -166 1701 -605 3500 -720 5339 -342 496 102 1342 339 1465
410 84 49 139 130 155 231 11 68 -2 312 -26 468 -57 385 -197 750 -408 1063
l-55 83 42 10 c1848 476 3357 1284 4672 2500 1797 1662 3027 4072 3354 6570
86 659 115 1400 66 1715 -61 397 -246 820 -520 1190 -170 229 -463 535 -710
740 -1693 1411 -4836 2357 -8520 2565 -482 27 -660 31 -1400 34 -434 2 -828 2
-875 0z m1605 -655 c3179 -100 6199 -822 8024 -1916 435 -261 746 -497 1036
-788 253 -252 413 -469 540 -730 145 -299 203 -547 193 -833 -16 -439 -228
-908 -590 -1307 -42 -46 -47 -48 -65 -35 -12 8 -83 62 -159 120 -375 285 -749
513 -1264 771 l-255 128 -61 88 c-295 423 -720 732 -1234 897 -255 82 -475
116 -750 116 -257 0 -469 -32 -700 -106 -63 -21 -122 -37 -130 -36 -8 0 -139
28 -290 61 -1135 248 -2355 412 -3615 486 -553 32 -764 38 -1472 40 l-733 3
-72 55 c-323 242 -708 391 -1175 454 -160 21 -634 25 -793 5 -581 -71 -1119
-246 -1585 -514 -213 -123 -387 -250 -578 -421 l-65 -58 -224 -49 c-939 -205
-1853 -476 -2560 -759 -894 -357 -1662 -781 -2225 -1227 l-91 -73 -74 85
c-276 322 -447 641 -522 975 -40 180 -52 327 -38 472 38 389 187 739 472 1107
92 118 340 372 485 498 234 202 563 432 895 626 189 111 661 350 890 450 1459
644 3348 1100 5396 1306 1115 111 2206 147 3389 109z m-2927 -3170 c331 -35
643 -142 877 -297 250 -167 407 -382 518 -712 25 -74 50 -152 55 -172 l10 -37
-106 -45 c-562 -237 -1048 -361 -1587 -407 -161 -13 -578 -13 -745 1 -434 35
-844 117 -1260 252 -184 60 -457 162 -474 178 -11 11 35 91 117 203 300 410
786 726 1396 907 381 113 867 166 1199 129z m4751 -414 c316 -49 559 -146 778
-310 161 -122 273 -327 273 -502 0 -124 -58 -280 -147 -395 -82 -107 -269
-244 -365 -268 -143 -36 -286 109 -248 251 17 64 52 104 143 163 126 81 197
169 197 243 0 46 -55 129 -118 178 -359 283 -1120 323 -1582 84 -123 -64 -216
-151 -241 -226 -43 -132 177 -315 486 -403 101 -29 127 -40 162 -73 23 -21 47
-55 54 -75 28 -84 3 -182 -60 -235 -73 -61 -163 -61 -348 1 -236 79 -396 171
-523 301 -209 214 -254 461 -128 712 46 93 171 228 273 296 220 147 529 245
875 277 92 8 418 -4 519 -19z m3731 -555 c244 -21 474 -85 677 -189 396 -202
679 -522 849 -961 40 -105 88 -290 77 -300 -15 -14 -286 -79 -436 -105 -765
-131 -1778 -90 -2875 117 l-113 21 7 31 c20 91 93 296 145 405 105 220 202
355 376 521 139 133 256 217 408 290 197 96 353 140 585 165 149 16 164 17
300 5z m-13189 -830 c314 -32 612 -131 814 -271 101 -69 222 -199 267 -285
145 -277 66 -574 -213 -798 -191 -153 -606 -307 -790 -294 -205 15 -261 295
-78 389 22 11 76 26 122 35 249 47 483 163 568 282 30 41 34 55 34 107 0 52
-4 67 -30 102 -100 135 -331 244 -635 300 -144 26 -475 23 -634 -5 -359 -66
-618 -225 -641 -395 -17 -122 -73 -188 -178 -207 -60 -12 -120 7 -171 51 -59
52 -81 115 -71 206 22 204 141 379 361 531 54 37 225 119 314 150 119 41 288
80 421 96 140 17 401 20 540 6z m17277 -1122 c-110 -643 -267 -1236 -478
-1803 -589 -1580 -1573 -2925 -2940 -4016 -1678 -1339 -3940 -2228 -6190
-2433 -456 -42 -1096 -54 -1470 -27 -1631 114 -3138 520 -4575 1231 -883 437
-1622 927 -2333 1548 -201 176 -661 633 -833 828 -1087 1231 -1795 2660 -2133
4299 -19 94 -42 213 -51 265 -8 52 -18 109 -21 125 -5 25 20 4 162 -136 244
-238 480 -430 789 -641 2324 -1584 6571 -2432 11010 -2198 3639 193 6793 1114
8506 2486 180 144 373 318 478 431 47 51 87 93 87 93 1 0 -3 -24 -8 -52z
m-9243 -318 c490 -56 887 -276 1044 -580 127 -243 95 -446 -76 -496 -131 -38
-249 48 -267 196 -20 165 -176 303 -441 391 -169 57 -279 73 -495 73 -151 0
-205 -4 -295 -22 -297 -59 -505 -173 -602 -331 -150 -242 268 -542 790 -567
146 -7 196 -19 242 -56 71 -59 95 -168 56 -253 -42 -92 -103 -119 -261 -116
-320 5 -647 99 -892 257 -91 58 -219 182 -274 265 -253 382 -70 840 431 1079
160 76 378 138 560 158 113 13 373 14 480 2z m-3485 -8449 c497 -82 1012 -135
1560 -161 290 -14 1032 -14 1315 0 592 29 1222 97 1700 185 l80 14 75 -77
c239 -248 411 -618 464 -997 8 -60 14 -110 13 -110 -1 -1 -105 -31 -232 -68
-803 -231 -1533 -360 -2305 -408 -240 -14 -815 -14 -1045 1 -783 50 -1541 192
-2255 423 l-135 44 2 64 c3 147 78 415 169 608 82 174 166 299 301 449 52 58
70 72 87 68 11 -2 104 -18 206 -35z"/>
</g>
</svg>
